<?xml version="1.0" encoding="UTF-8" standalone="no"?>
<svg
   shape-rendering="geometricPrecision"
   text-rendering="geometricPrecision"
   image-rendering="optimizeQuality"
   fill-rule="evenodd"
   clip-rule="evenodd"
   viewBox="0 0 512 512"
   version="1.1"
   id="svg40"
   sodipodi:docname="pets-allowed-icon.svg"
   inkscape:version="1.2.2 (b0a8486541, 2022-12-01, custom)"
   xmlns:inkscape="http://www.inkscape.org/namespaces/inkscape"
   xmlns:sodipodi="http://sodipodi.sourceforge.net/DTD/sodipodi-0.dtd"
   xmlns="http://www.w3.org/2000/svg"
   xmlns:svg="http://www.w3.org/2000/svg">
  <defs
     id="defs44" />
  <sodipodi:namedview
     id="namedview42"
     pagecolor="#ffffff"
     bordercolor="#000000"
     borderopacity="0.25"
     inkscape:showpageshadow="2"
     inkscape:pageopacity="0.0"
     inkscape:pagecheckerboard="0"
     inkscape:deskcolor="#d1d1d1"
     showgrid="false"
     inkscape:zoom="1.1875"
     inkscape:cx="189.47368"
     inkscape:cy="275.78947"
     inkscape:window-width="1526"
     inkscape:window-height="836"
     inkscape:window-x="0"
     inkscape:window-y="0"
     inkscape:window-maximized="1"
     inkscape:current-layer="svg40" />
  <path
     fill="#fff"
     fill-rule="nonzero"
     d="M423.68 137.2 137.2 423.68c15.54 11.02 32.65 19.95 50.92 26.34 21.19 7.41 44.03 11.44 67.88 11.44 27.89 0 54.44-5.53 78.61-15.54 25.07-10.38 47.69-25.66 66.67-44.64 18.99-18.99 34.26-41.6 44.65-66.68 10.01-24.16 15.53-50.71 15.53-78.6h.04c0-23.78-4.04-46.62-11.48-67.88-6.39-18.27-15.31-35.38-26.34-50.92zM99.84 389.57 389.57 99.84c-16.99-14.55-36.35-26.37-57.42-34.77-23.48-9.38-49.17-14.53-76.15-14.53-27.9 0-54.45 5.53-78.61 15.53-25.07 10.39-47.69 25.66-66.68 44.65-18.98 18.98-34.25 41.59-44.63 66.67C56.06 201.55 50.54 228.1 50.54 256c0 26.97 5.15 52.67 14.52 76.15 8.41 21.06 20.23 40.43 34.78 57.42z"
     id="path34" />
  <path
     d="M210.61 116c21.56 0 39.04 26.79 39.04 59.83s-17.48 59.83-39.04 59.83-39.04-26.79-39.04-59.83S189.05 116 210.61 116zm49.63 144.83c45.71.1 51.39 30.37 89.94 82.21 19.2 37.71-5.74 61.49-48.49 51.3-19.38-9.88-33.04-13.38-46.72-12.9-23.7.84-29.68 16.47-57.27 15.36-21.29-.58-30.85-9.49-32.72-23.08-1.98-14.44 3.58-23.57 10.36-35.52 26.36-46.48 53.63-83.18 84.89-77.37h.01zm-125.04-56.1c-16.12 6.37-21.26 31.56-11.49 56.26 9.77 24.7 30.75 39.55 46.86 33.17 16.12-6.36 21.26-31.56 11.49-56.25-9.76-24.7-30.75-39.56-46.86-33.18zm241.6 0c16.11 6.37 21.26 31.56 11.49 56.26-9.77 24.7-30.76 39.55-46.87 33.17-16.11-6.36-21.26-31.56-11.49-56.25 9.77-24.7 30.76-39.56 46.87-33.18zm-76.11-89.59c21.55 0 39.04 26.8 39.04 59.83 0 33.04-17.49 59.83-39.04 59.83-21.56 0-39.04-26.79-39.04-59.83s17.48-59.83 39.04-59.83z"
     id="path36" />
  <path
     id="path38"
     d="M 256 0 C 221.39003 0 188.33059 6.9001688 158.14062 19.410156 A 256.304 256.304 0 0 0 74.980469 74.980469 C 51.420492 98.540445 32.420143 126.74066 19.410156 158.14062 C 6.9001688 188.33059 0 221.39003 0 256 C 0 290.60997 6.9001688 323.65941 19.410156 353.85938 A 256.41 256.41 0 0 0 74.980469 437.01953 A 256.463 256.463 0 0 0 158.14062 492.58984 C 188.34059 505.09983 221.39003 512 256 512 C 290.60997 512 323.66941 505.09983 353.85938 492.58984 A 256.463 256.463 0 0 0 437.01953 437.01953 A 256.57 256.57 0 0 0 492.58984 353.85938 C 505.08983 323.65941 512 290.60997 512 256 C 512 221.39003 505.09983 188.34059 492.58984 158.14062 A 256.57 256.57 0 0 0 437.01953 74.980469 C 413.45955 51.420492 385.25934 32.410143 353.85938 19.410156 C 323.66941 6.9001688 290.60997 0 256 0 z M 255.99805 50.539062 A 205.46001 205.46001 0 0 1 256 50.539062 C 259.62806 50.539062 263.22747 50.649993 266.80664 50.833984 A 205.46001 205.46001 0 0 1 268.56641 50.958984 C 271.67847 51.145397 274.77256 51.392449 277.84375 51.714844 A 205.46001 205.46001 0 0 1 279.08984 51.863281 C 282.45414 52.237133 285.79074 52.693191 289.10156 53.226562 A 205.46001 205.46001 0 0 1 289.42773 53.283203 C 304.28079 55.700632 318.59371 59.650575 332.15039 65.060547 C 353.22037 73.470538 372.58033 85.289858 389.57031 99.839844 L 389.53516 99.875 A 205.46001 205.46001 0 0 1 423.59961 137.2793 L 423.67969 137.19922 C 424.21354 137.95135 424.67921 138.75227 425.20312 139.51172 A 205.46001 205.46001 0 0 1 428.31836 144.23828 C 433.2426 151.81172 437.66661 159.71694 441.57227 167.92383 A 205.46001 205.46001 0 0 1 442.8457 170.60742 C 444.12455 173.39867 445.33531 176.22049 446.49023 179.07617 A 205.46001 205.46001 0 0 1 447.42773 181.47656 C 448.29103 183.69152 449.23226 185.8682 450.01953 188.11914 C 457.45952 209.37912 461.5 232.23026 461.5 255.99023 L 461.46094 255.99023 C 461.46094 283.89021 455.93968 310.43963 445.92969 334.59961 C 439.72589 349.5747 431.749 363.64421 422.3125 376.61328 A 205.46001 205.46001 0 0 1 422.13477 376.86328 C 415.8247 385.5085 408.87942 393.67351 401.31445 401.24219 A 205.46001 205.46001 0 0 1 401.24219 401.31445 C 393.68381 408.86912 385.52761 415.80755 376.89062 422.11328 A 205.46001 205.46001 0 0 1 376.57031 422.33984 C 363.61453 431.76098 349.56024 439.72965 334.60938 445.91992 C 310.4394 455.92991 283.88997 461.46094 256 461.46094 L 255.99805 461.46094 C 232.14878 461.46072 209.30854 457.42932 188.11914 450.01953 C 169.84916 443.62954 152.7392 434.70991 137.19922 423.66992 L 137.34961 423.51953 A 205.46001 205.46001 0 0 1 100.31055 389.09961 L 99.839844 389.57031 C 85.289858 372.58033 73.470304 353.21037 65.070312 332.15039 C 55.690322 308.67041 50.539062 282.96997 50.539062 256 C 50.539062 228.10003 56.070323 201.5506 66.070312 177.39062 C 72.280813 162.39935 80.267053 148.31464 89.714844 135.33398 A 205.46001 205.46001 0 0 1 89.832031 135.16992 C 96.158941 126.49496 103.12351 118.30236 110.71094 110.71094 C 118.30274 103.12314 126.49643 96.159188 135.17188 89.832031 A 205.46001 205.46001 0 0 1 135.32617 89.720703 C 148.309 80.270393 162.39631 72.282071 177.39062 66.070312 C 201.55003 56.060557 228.09879 50.539322 255.99805 50.539062 z "
     style="fill:#00af28;fill-opacity:1" />
</svg>
