<?xml version="1.0" encoding="iso-8859-1"?>
<!-- Generator: Adobe Illustrator 19.1.1, SVG Export Plug-In . SVG Version: 6.00 Build 0)  -->
<svg version="1.1" id="Layer_1" xmlns="http://www.w3.org/2000/svg" xmlns:xlink="http://www.w3.org/1999/xlink" x="0px" y="0px"
	 viewBox="0 0 48 48" style="enable-background:new 0 0 48 48;" xml:space="preserve">
<rect x="27" y="13.25" style="fill:#3E2723;" width="12" height="13.731"/>
<path style="fill:#2196F3;" d="M36.75,26L36.75,26c0,0-2.219-0.313-3.75-0.313S29.25,26,29.25,26S21,27.527,21,36h24
	C45,27.559,36.75,26,36.75,26"/>
<path style="fill:#EF8D3C;" d="M33,29.75c-1.439,0-3.5-3.75-3.5-3.75v-5h7v5C36.5,26,34.439,29.75,33,29.75"/>
<path style="fill:#FFAA45;" d="M40,18c0,3.728-3.272,7-7,7c-3.729,0-7-3.272-7-7v-6c0-3.728,14-5.726,14,0V18z M33,31
	c2.901,0,3.5-5,3.5-5s-1.864,3-3.5,3s-3.5-3-3.5-3S30.099,31,33,31"/>
<path style="fill:#0D47A1;" d="M33,33c3.552,0,5.066-3.932,5.443-6.467C37.456,26.14,36.75,26,36.75,26s-0.103-0.014-0.25-0.033V26
	c0,0-0.599,5-3.5,5s-3.5-5-3.5-5v-0.033C29.353,25.986,29.25,26,29.25,26s-0.706,0.137-1.694,0.528C27.932,29.063,29.446,33,33,33z"
	/>
<path style="fill:#784719;" d="M35,17c0-0.551,0.448-1,1-1s1,0.449,1,1s-0.448,1-1,1S35,17.551,35,17 M29,17c0,0.551,0.448,1,1,1
	s1-0.449,1-1s-0.448-1-1-1S29,16.449,29,17"/>
<path style="fill:#4E342E;" d="M33,6c-4.556,0-11,2.089-11,17l5,3.98V16l9-5l3,4v12l5-5c0-3.019-0.255-14.5-8-14.5L35,6H33z"/>
<rect x="9" y="19.25" style="fill:#4E342E;" width="12" height="13.731"/>
<path style="fill:#4FC3F7;" d="M18.75,32L18.75,32c0,0-2.219-0.313-3.75-0.313S11.25,32,11.25,32S3,33.527,3,42h24
	C27,33.559,18.75,32,18.75,32"/>
<path style="fill:#FF9800;" d="M15,35.75c-1.439,0-3.5-3.75-3.5-3.75v-5h7v5C18.5,32,16.439,35.75,15,35.75"/>
<path style="fill:#FFB74D;" d="M22,24c0,3.728-3.272,7-7,7c-3.729,0-7-3.272-7-7v-6c0-3.728,14-5.726,14,0V24z M15,37
	c2.901,0,3.5-5,3.5-5s-1.864,3-3.5,3s-3.5-3-3.5-3S12.099,37,15,37"/>
<path style="fill:#01579B;" d="M15,39c3.552,0,5.066-3.932,5.443-6.467C19.456,32.14,18.75,32,18.75,32s-0.103-0.014-0.25-0.033V32
	c0,0-0.599,5-3.5,5s-3.5-5-3.5-5v-0.033C11.353,31.986,11.25,32,11.25,32s-0.706,0.137-1.694,0.528C9.932,35.063,11.446,39,15,39z"
	/>
<path style="fill:#784719;" d="M17,23c0-0.551,0.448-1,1-1s1,0.449,1,1s-0.448,1-1,1S17,23.551,17,23 M11,23c0,0.551,0.448,1,1,1
	s1-0.449,1-1s-0.448-1-1-1S11,22.449,11,23"/>
<path style="fill:#795548;" d="M15,12c-4.556,0-11,2.089-11,17l5,3.98V22l9-5l3,4v12l5-5c0-3.019-0.255-14.5-8-14.5L17,12H15z"/>
</svg>
